<svg width="63" height="112" viewBox="0 0 63 112" fill="none" xmlns="http://www.w3.org/2000/svg">
<path d="M62.8739 55.8879C62.941 55.9476 62.941 56.0524 62.8739 56.1121L0.249657 111.778C0.152922 111.864 -5.95198e-07 111.795 -5.89541e-07 111.666L4.275e-07 88.3988C4.29385e-07 88.3557 0.0185513 88.3147 0.0509207 88.2862L36.622 56.112C36.6899 56.0523 36.6899 55.9465 36.622 55.8867L0.0509229 23.7125C0.0185535 23.6841 3.25806e-06 23.643 3.25995e-06 23.5999L4.27693e-06 0.334025C4.28259e-06 0.204597 0.152924 0.135926 0.249659 0.221912L62.8739 55.8879Z" fill="#0D0D0D"/>
</svg>
