<svg width="200" height="200" viewBox="0 0 200 200" fill="none" xmlns="http://www.w3.org/2000/svg">
<path d="M200 100C200 155.228 155.228 200 100 200C44.7715 200 0 155.228 0 100C0 44.7715 44.7715 0 100 0C155.228 0 200 44.7715 200 100Z" fill="white"/>
<path d="M64.1261 100.112C64.059 100.052 64.059 99.9476 64.1261 99.8879L126.75 44.2219C126.847 44.1359 127 44.2046 127 44.334V67.6012C127 67.6443 126.981 67.6854 126.949 67.7138L90.378 99.888C90.3101 99.9477 90.3101 100.054 90.378 100.113L126.949 132.287C126.981 132.316 127 132.357 127 132.4V155.666C127 155.795 126.847 155.864 126.75 155.778L64.1261 100.112Z" fill="#0D0D0D"/>
</svg>
