<svg width="200" height="200" viewBox="0 0 200 200" fill="none" xmlns="http://www.w3.org/2000/svg">
<path d="M200 100C200 155.228 155.228 200 100 200C44.7715 200 0 155.228 0 100C0 44.7715 44.7715 0 100 0C155.228 0 200 44.7715 200 100Z" fill="white"/>
<path d="M139.874 92.8879C139.941 92.9476 139.941 93.0524 139.874 93.1121L77.2497 148.778C77.1529 148.864 77 148.795 77 148.666V125.399C77 125.356 77.0185 125.315 77.0509 125.286L113.622 93.112C113.69 93.0523 113.69 92.9465 113.622 92.8867L77.0509 60.7125C77.0186 60.6841 77 60.643 77 60.5999L77 37.334C77 37.2046 77.1529 37.1359 77.2497 37.2219L139.874 92.8879Z" fill="#0D0D0D"/>
</svg>
